<?xml version="1.0" encoding="iso-8859-1"?>
<!-- Generator: Adobe Illustrator 19.0.0, SVG Export Plug-In . SVG Version: 6.00 Build 0)  -->
<svg version="1.1" id="Layer_1" xmlns="http://www.w3.org/2000/svg" xmlns:xlink="http://www.w3.org/1999/xlink" x="0px" y="0px"
	 viewBox="0 0 512 512" style="enable-background:new 0 0 512 512;" xml:space="preserve" >
<g>
	<g>
		<path d="M427.336,70.691h-15.327V16.812C412.009,7.528,404.481,0,395.196,0H258.289c-6.548,0-12.501,3.802-15.253,9.742
			l-28.249,60.949h-18.19c-4.474,0-8.764,1.783-11.919,4.955l-5.936,5.966L154.789,57.66c-6.565-6.565-17.21-6.566-23.776,0
			l-58.237,58.237c-6.566,6.566-6.566,17.21,0,23.776l24.164,24.164l-5.261,5.288c-3.134,3.151-4.894,7.413-4.894,11.857v314.205
			c0,9.285,7.528,16.813,16.813,16.813h323.739c9.285,0,16.812-7.528,16.812-16.813V87.503
			C444.149,78.218,436.621,70.691,427.336,70.691z M269.028,33.625h109.357v37.066H251.848L269.028,33.625z M142.901,93.325
			l12.007,12.007l-34.461,34.461l-12.006-12.007L142.901,93.325z M410.524,478.375H120.41V187.922l83.175-83.606
			c12.173,0,195.708,0,206.939,0V478.375z"/>
	</g>
</g>
<g>
	<g>
		<path d="M289.244,291.586l73.509-73.509c6.566-6.566,6.566-17.21,0-23.776c-6.565-6.566-17.21-6.566-23.776,0l-73.509,73.509
			l-73.509-73.509c-6.565-6.566-17.21-6.566-23.776,0c-6.566,6.566-6.566,17.21,0,23.776l73.509,73.509l-73.509,73.509
			c-6.566,6.566-6.566,17.21,0,23.776c6.565,6.566,17.21,6.567,23.776,0l73.509-73.509l73.509,73.509
			c6.565,6.565,17.21,6.567,23.776,0c6.566-6.566,6.566-17.21,0-23.776L289.244,291.586z"/>
	</g>
</g>
<g>
</g>
<g>
</g>
<g>
</g>
<g>
</g>
<g>
</g>
<g>
</g>
<g>
</g>
<g>
</g>
<g>
</g>
<g>
</g>
<g>
</g>
<g>
</g>
<g>
</g>
<g>
</g>
<g>
</g>
</svg>
