<?xml version="1.0" encoding="iso-8859-1"?>
<!-- Generator: Adobe Illustrator 19.0.0, SVG Export Plug-In . SVG Version: 6.00 Build 0)  -->
<svg version="1.1" id="Layer_1" xmlns="http://www.w3.org/2000/svg" xmlns:xlink="http://www.w3.org/1999/xlink" x="0px" y="0px"
	 viewBox="0 0 501.824 501.824" style="enable-background:new 0 0 501.824 501.824;" xml:space="preserve">
<g>
	<g>
		<g>
			<path d="M400.984,211.464L250.912,0L100.84,211.464c-22.192,31.28-33.928,68.088-33.928,106.44
				c0,101.416,82.504,183.92,183.92,183.92h0.16c101.416,0,183.92-82.504,183.92-183.92
				C434.912,279.552,423.176,242.744,400.984,211.464z M250.992,485.824h-0.16c-92.592,0-167.92-75.328-167.92-167.92
				c0-35.016,10.712-68.616,30.976-97.184L250.912,27.648L387.936,220.72c20.264,28.568,30.976,62.168,30.976,97.184
				C418.912,410.496,343.584,485.824,250.992,485.824z"/>
			<path d="M350.752,261.824h-19.84v16h12.16l3.792,4.744l-18.24,18.24l24.08,36.112l10.208-6.816v27.72c0,13.232-10.768,24-24,24
				h-16v-176c0-8.824-7.176-16-16-16h-112c-8.824,0-16,7.176-16,16v208h-16v16h176v-16h-16v-16h16c22.056,0,40-17.944,40-40v-38.392
				l11.696-7.792L350.752,261.824z M306.912,277.824h-16v16h16v120h-112v-120h80v-16h-80v-32h112V277.824z M306.912,229.824h-112
				v-24h112V229.824z M357.128,314.728l-7.92-11.888l7.704-7.704l10.304,12.872L357.128,314.728z"/>
			<rect x="274.912" y="381.824" width="16" height="16"/>
			<rect x="242.912" y="381.824" width="16" height="16"/>
		</g>
	</g>
</g>
<g>
</g>
<g>
</g>
<g>
</g>
<g>
</g>
<g>
</g>
<g>
</g>
<g>
</g>
<g>
</g>
<g>
</g>
<g>
</g>
<g>
</g>
<g>
</g>
<g>
</g>
<g>
</g>
<g>
</g>
</svg>
